<svg version="1.2" xmlns="http://www.w3.org/2000/svg" viewBox="0 0 329 305" width="329" height="305">
	<style>
		.s0 { fill: #337a87 } 
		.s1 { fill: #9fd6e0 } 
		.s2 { fill: #35c5df } 
		.s3 { fill: #000000 } 
	</style>
	<path fill-rule="evenodd" class="s0" d="m299.37 68.88l-155.72-35.02-75.09 37.62-66.08 33.11 67.83 179.1 145.4 18.82 13.19-14.17 82.71-88.87-12.24-130.59z"/>
	<path class="s1" d="m319.63 85.51c-5.03-29.46-44.92-58.45-76.31-66.67-53.74-14.06-124.56-27.15-151-2.66-9.67 8.96-17.71 30.29-23.76 55.3-7.78 32.19-12.26 70.51-12.68 96.43-0.29 18.04 5.63 55.25 22.1 66.24 37.63 25.13 110.18 52.7 150.92 54.19 4.96 0.18 9.46-0.03 13.36-0.67 25.57-4.24 60.99-31.67 70.26-60.32 8.97-27.71 15.28-94.09 7.11-141.84z"/>
	<path class="s2" d="m299.37 68.88l-155.72-35.02-75.09 37.62c-7.78 32.2-12.26 70.51-12.68 96.43-0.29 18.05 5.63 55.25 22.1 66.24 37.63 25.13 110.18 52.7 150.92 54.19l82.71-88.87c0 0-12.24-130.59-12.24-130.59z"/>
	<g>
		<path class="s3" d="m146.32 151.91l-15.24-6.38c-9.43-3.86-17.99-7.11-17.99-15.9 0-8.18 6.92-13.13 17.56-13.13 9.67 0 17.33 3.58 24.56 9.69l10.49-12.96c-8.93-9.03-21.81-14.49-35.05-14.49-22.21 0-38.22 13.98-38.22 32.09 0 16.57 11.72 25.46 22.92 30.11l15.46 6.71c10.28 4.35 17.54 7.29 17.54 16.49 0 8.71-6.9 14.41-19.54 14.41-10.47 0-21.33-5.18-29.44-12.87l-11.9 14.03c10.8 10.59 25.62 16.6 40.92 16.6 25.55 0 40.83-15.39 40.83-33.8 0-16.41-9.38-24.98-22.9-30.6z"/>
		<path class="s3" d="m224.95 199.75c-13.12 0-22.42-11.14-22.42-28.08 0-16.93 9.41-28.21 23.06-28.21 5.26 0 9.51 2.25 14 6.18l9.85-13.18c-6.19-5.42-14.11-9.56-24.92-9.56-22.75 0-42.86 16.39-42.86 44.77 0 28.39 17.88 44.64 41.16 44.64 9.69 0 19.85-3.37 27.85-10.46l-8.23-13.39c-4.83 4.06-10.89 7.29-17.49 7.29z"/>
		<path class="s3" d="m274.47 91.35c-7.16 0-12.49 4.64-12.49 11.43 0 6.66 5.33 11.43 12.49 11.43 7.17 0 12.5-4.77 12.5-11.43 0-6.79-5.33-11.43-12.5-11.43z"/>
		<path fill-rule="evenodd" class="s3" d="m264.25 128.99h20.31v85.24h-20.31z"/>
	</g>
</svg>